<svg xmlns="http://www.w3.org/2000/svg" xmlns:xlink="http://www.w3.org/1999/xlink" width="2200" zoomAndPan="magnify" viewBox="0 0 1650 374.999991" height="500" preserveAspectRatio="xMidYMid meet" version="1.0"><defs><g/><clipPath id="aaccfae02f"><path d="M 0 8.832031 L 357.335938 8.832031 L 357.335938 366.167969 L 0 366.167969 Z M 0 8.832031 " clip-rule="nonzero"/></clipPath><clipPath id="5b63fc4cd0"><path d="M 7.148438 8.832031 L 350.191406 8.832031 C 352.085938 8.832031 353.902344 9.585938 355.242188 10.925781 C 356.582031 12.265625 357.335938 14.082031 357.335938 15.976562 L 357.335938 359.023438 C 357.335938 360.917969 356.582031 362.734375 355.242188 364.074219 C 353.902344 365.414062 352.085938 366.167969 350.191406 366.167969 L 7.148438 366.167969 C 5.25 366.167969 3.433594 365.414062 2.09375 364.074219 C 0.753906 362.734375 0 360.917969 0 359.023438 L 0 15.976562 C 0 14.082031 0.753906 12.265625 2.09375 10.925781 C 3.433594 9.585938 5.25 8.832031 7.148438 8.832031 Z M 7.148438 8.832031 " clip-rule="nonzero"/></clipPath><clipPath id="7224e64fce"><path d="M 0 0.832031 L 357.335938 0.832031 L 357.335938 358.167969 L 0 358.167969 Z M 0 0.832031 " clip-rule="nonzero"/></clipPath><clipPath id="812453c952"><path d="M 7.148438 0.832031 L 350.191406 0.832031 C 352.085938 0.832031 353.902344 1.585938 355.242188 2.925781 C 356.582031 4.265625 357.335938 6.082031 357.335938 7.976562 L 357.335938 351.023438 C 357.335938 352.917969 356.582031 354.734375 355.242188 356.074219 C 353.902344 357.414062 352.085938 358.167969 350.191406 358.167969 L 7.148438 358.167969 C 5.25 358.167969 3.433594 357.414062 2.09375 356.074219 C 0.753906 354.734375 0 352.917969 0 351.023438 L 0 7.976562 C 0 6.082031 0.753906 4.265625 2.09375 2.925781 C 3.433594 1.585938 5.25 0.832031 7.148438 0.832031 Z M 7.148438 0.832031 " clip-rule="nonzero"/></clipPath><clipPath id="026d3ace2c"><rect x="0" width="358" y="0" height="359"/></clipPath><clipPath id="aaf7e28b4b"><path d="M 75.808594 84.640625 L 281.527344 84.640625 L 281.527344 290.359375 L 75.808594 290.359375 Z M 75.808594 84.640625 " clip-rule="nonzero"/></clipPath><clipPath id="91cf0e14a8"><path d="M 81.808594 84.640625 L 275.527344 84.640625 C 277.121094 84.640625 278.644531 85.273438 279.769531 86.398438 C 280.894531 87.523438 281.527344 89.050781 281.527344 90.640625 L 281.527344 284.359375 C 281.527344 285.949219 280.894531 287.476562 279.769531 288.601562 C 278.644531 289.726562 277.121094 290.359375 275.527344 290.359375 L 81.808594 290.359375 C 80.21875 290.359375 78.691406 289.726562 77.566406 288.601562 C 76.441406 287.476562 75.808594 285.949219 75.808594 284.359375 L 75.808594 90.640625 C 75.808594 89.050781 76.441406 87.523438 77.566406 86.398438 C 78.691406 85.273438 80.21875 84.640625 81.808594 84.640625 Z M 81.808594 84.640625 " clip-rule="nonzero"/></clipPath><clipPath id="9f250e81eb"><path d="M 0.808594 0.640625 L 206.527344 0.640625 L 206.527344 206.359375 L 0.808594 206.359375 Z M 0.808594 0.640625 " clip-rule="nonzero"/></clipPath><clipPath id="41ca853aba"><path d="M 6.808594 0.640625 L 200.527344 0.640625 C 202.121094 0.640625 203.644531 1.273438 204.769531 2.398438 C 205.894531 3.523438 206.527344 5.050781 206.527344 6.640625 L 206.527344 200.359375 C 206.527344 201.949219 205.894531 203.476562 204.769531 204.601562 C 203.644531 205.726562 202.121094 206.359375 200.527344 206.359375 L 6.808594 206.359375 C 5.21875 206.359375 3.691406 205.726562 2.566406 204.601562 C 1.441406 203.476562 0.808594 201.949219 0.808594 200.359375 L 0.808594 6.640625 C 0.808594 5.050781 1.441406 3.523438 2.566406 2.398438 C 3.691406 1.273438 5.21875 0.640625 6.808594 0.640625 Z M 6.808594 0.640625 " clip-rule="nonzero"/></clipPath><clipPath id="dcbd5b86c8"><rect x="0" width="207" y="0" height="207"/></clipPath><clipPath id="388b850834"><path d="M 102.113281 202.160156 L 136.191406 202.160156 L 136.191406 254.609375 L 102.113281 254.609375 Z M 102.113281 202.160156 " clip-rule="nonzero"/></clipPath><clipPath id="17468a6842"><path d="M 108.113281 202.160156 L 130.191406 202.160156 C 131.785156 202.160156 133.308594 202.789062 134.433594 203.917969 C 135.558594 205.042969 136.191406 206.566406 136.191406 208.160156 L 136.191406 248.492188 C 136.191406 250.082031 135.558594 251.609375 134.433594 252.734375 C 133.308594 253.859375 131.785156 254.492188 130.191406 254.492188 L 108.113281 254.492188 C 106.519531 254.492188 104.996094 253.859375 103.871094 252.734375 C 102.746094 251.609375 102.113281 250.082031 102.113281 248.492188 L 102.113281 208.160156 C 102.113281 206.566406 102.746094 205.042969 103.871094 203.917969 C 104.996094 202.789062 106.519531 202.160156 108.113281 202.160156 Z M 108.113281 202.160156 " clip-rule="nonzero"/></clipPath><clipPath id="c7a163b07d"><path d="M 0.113281 0.160156 L 34.191406 0.160156 L 34.191406 52.609375 L 0.113281 52.609375 Z M 0.113281 0.160156 " clip-rule="nonzero"/></clipPath><clipPath id="08ead9d217"><path d="M 6.113281 0.160156 L 28.191406 0.160156 C 29.785156 0.160156 31.308594 0.789062 32.433594 1.917969 C 33.558594 3.042969 34.191406 4.566406 34.191406 6.160156 L 34.191406 46.492188 C 34.191406 48.082031 33.558594 49.609375 32.433594 50.734375 C 31.308594 51.859375 29.785156 52.492188 28.191406 52.492188 L 6.113281 52.492188 C 4.519531 52.492188 2.996094 51.859375 1.871094 50.734375 C 0.746094 49.609375 0.113281 48.082031 0.113281 46.492188 L 0.113281 6.160156 C 0.113281 4.566406 0.746094 3.042969 1.871094 1.917969 C 2.996094 0.789062 4.519531 0.160156 6.113281 0.160156 Z M 6.113281 0.160156 " clip-rule="nonzero"/></clipPath><clipPath id="07ad2298ef"><rect x="0" width="35" y="0" height="53"/></clipPath><clipPath id="ee7c8578bc"><path d="M 161.628906 192.785156 L 195.707031 192.785156 L 195.707031 254.554688 L 161.628906 254.554688 Z M 161.628906 192.785156 " clip-rule="nonzero"/></clipPath><clipPath id="f20d28c5cd"><path d="M 167.628906 192.785156 L 189.707031 192.785156 C 191.300781 192.785156 192.824219 193.417969 193.949219 194.542969 C 195.078125 195.667969 195.707031 197.195312 195.707031 198.785156 L 195.707031 248.492188 C 195.707031 250.082031 195.078125 251.609375 193.949219 252.734375 C 192.824219 253.859375 191.300781 254.492188 189.707031 254.492188 L 167.628906 254.492188 C 166.039062 254.492188 164.511719 253.859375 163.386719 252.734375 C 162.261719 251.609375 161.628906 250.082031 161.628906 248.492188 L 161.628906 198.785156 C 161.628906 197.195312 162.261719 195.667969 163.386719 194.542969 C 164.511719 193.417969 166.039062 192.785156 167.628906 192.785156 Z M 167.628906 192.785156 " clip-rule="nonzero"/></clipPath><clipPath id="df4010b64b"><path d="M 0.628906 0.785156 L 34.707031 0.785156 L 34.707031 62.554688 L 0.628906 62.554688 Z M 0.628906 0.785156 " clip-rule="nonzero"/></clipPath><clipPath id="b2b4dc5e3d"><path d="M 6.628906 0.785156 L 28.707031 0.785156 C 30.300781 0.785156 31.824219 1.417969 32.949219 2.542969 C 34.078125 3.667969 34.707031 5.195312 34.707031 6.785156 L 34.707031 56.492188 C 34.707031 58.082031 34.078125 59.609375 32.949219 60.734375 C 31.824219 61.859375 30.300781 62.492188 28.707031 62.492188 L 6.628906 62.492188 C 5.039062 62.492188 3.511719 61.859375 2.386719 60.734375 C 1.261719 59.609375 0.628906 58.082031 0.628906 56.492188 L 0.628906 6.785156 C 0.628906 5.195312 1.261719 3.667969 2.386719 2.542969 C 3.511719 1.417969 5.039062 0.785156 6.628906 0.785156 Z M 6.628906 0.785156 " clip-rule="nonzero"/></clipPath><clipPath id="5acb7c18cb"><rect x="0" width="35" y="0" height="63"/></clipPath><clipPath id="6b99e468e4"><path d="M 221.195312 120.265625 L 255.273438 120.265625 L 255.273438 254.589844 L 221.195312 254.589844 Z M 221.195312 120.265625 " clip-rule="nonzero"/></clipPath><clipPath id="2f60b1b86b"><path d="M 227.195312 120.265625 L 249.273438 120.265625 C 250.867188 120.265625 252.390625 120.898438 253.515625 122.023438 C 254.640625 123.148438 255.273438 124.675781 255.273438 126.265625 L 255.273438 248.492188 C 255.273438 250.082031 254.640625 251.609375 253.515625 252.734375 C 252.390625 253.859375 250.867188 254.492188 249.273438 254.492188 L 227.195312 254.492188 C 225.601562 254.492188 224.078125 253.859375 222.953125 252.734375 C 221.828125 251.609375 221.195312 250.082031 221.195312 248.492188 L 221.195312 126.265625 C 221.195312 124.675781 221.828125 123.148438 222.953125 122.023438 C 224.078125 120.898438 225.601562 120.265625 227.195312 120.265625 Z M 227.195312 120.265625 " clip-rule="nonzero"/></clipPath><clipPath id="099831fcdc"><path d="M 0.195312 0.265625 L 34.273438 0.265625 L 34.273438 134.589844 L 0.195312 134.589844 Z M 0.195312 0.265625 " clip-rule="nonzero"/></clipPath><clipPath id="35d9a2c3fa"><path d="M 6.195312 0.265625 L 28.273438 0.265625 C 29.867188 0.265625 31.390625 0.898438 32.515625 2.023438 C 33.640625 3.148438 34.273438 4.675781 34.273438 6.265625 L 34.273438 128.492188 C 34.273438 130.082031 33.640625 131.609375 32.515625 132.734375 C 31.390625 133.859375 29.867188 134.492188 28.273438 134.492188 L 6.195312 134.492188 C 4.601562 134.492188 3.078125 133.859375 1.953125 132.734375 C 0.828125 131.609375 0.195312 130.082031 0.195312 128.492188 L 0.195312 6.265625 C 0.195312 4.675781 0.828125 3.148438 1.953125 2.023438 C 3.078125 0.898438 4.601562 0.265625 6.195312 0.265625 Z M 6.195312 0.265625 " clip-rule="nonzero"/></clipPath><clipPath id="6c4d67add9"><rect x="0" width="35" y="0" height="135"/></clipPath><clipPath id="6408fdb9f7"><path d="M 161.628906 153.980469 L 195.804688 153.980469 L 195.804688 187.5 L 161.628906 187.5 Z M 161.628906 153.980469 " clip-rule="nonzero"/></clipPath><clipPath id="454407626e"><path d="M 167.628906 153.980469 L 189.707031 153.980469 C 191.300781 153.980469 192.824219 154.613281 193.949219 155.738281 C 195.078125 156.863281 195.707031 158.386719 195.707031 159.980469 L 195.707031 181.5 C 195.707031 183.089844 195.078125 184.617188 193.949219 185.742188 C 192.824219 186.867188 191.300781 187.5 189.707031 187.5 L 167.628906 187.5 C 166.039062 187.5 164.511719 186.867188 163.386719 185.742188 C 162.261719 184.617188 161.628906 183.089844 161.628906 181.5 L 161.628906 159.980469 C 161.628906 158.386719 162.261719 156.863281 163.386719 155.738281 C 164.511719 154.613281 166.039062 153.980469 167.628906 153.980469 Z M 167.628906 153.980469 " clip-rule="nonzero"/></clipPath><clipPath id="2e74b1bbcf"><path d="M 0.628906 0.980469 L 34.804688 0.980469 L 34.804688 34.5 L 0.628906 34.5 Z M 0.628906 0.980469 " clip-rule="nonzero"/></clipPath><clipPath id="4519f90eb1"><path d="M 6.628906 0.980469 L 28.707031 0.980469 C 30.300781 0.980469 31.824219 1.613281 32.949219 2.738281 C 34.078125 3.863281 34.707031 5.386719 34.707031 6.980469 L 34.707031 28.5 C 34.707031 30.089844 34.078125 31.617188 32.949219 32.742188 C 31.824219 33.867188 30.300781 34.5 28.707031 34.5 L 6.628906 34.5 C 5.039062 34.5 3.511719 33.867188 2.386719 32.742188 C 1.261719 31.617188 0.628906 30.089844 0.628906 28.5 L 0.628906 6.980469 C 0.628906 5.386719 1.261719 3.863281 2.386719 2.738281 C 3.511719 1.613281 5.039062 0.980469 6.628906 0.980469 Z M 6.628906 0.980469 " clip-rule="nonzero"/></clipPath><clipPath id="6713439156"><rect x="0" width="35" y="0" height="35"/></clipPath></defs><g clip-path="url(#aaccfae02f)"><g clip-path="url(#5b63fc4cd0)"><g transform="matrix(1, 0, 0, 1, 0, 8)"><g clip-path="url(#026d3ace2c)"><g clip-path="url(#7224e64fce)"><g clip-path="url(#812453c952)"><path fill="#1052d4" d="M 0 0.832031 L 357.335938 0.832031 L 357.335938 358.167969 L 0 358.167969 Z M 0 0.832031 " fill-opacity="1" fill-rule="nonzero"/></g></g></g></g></g></g><g clip-path="url(#aaf7e28b4b)"><g clip-path="url(#91cf0e14a8)"><g transform="matrix(1, 0, 0, 1, 75, 84)"><g clip-path="url(#dcbd5b86c8)"><g clip-path="url(#9f250e81eb)"><g clip-path="url(#41ca853aba)"><path fill="#ffffff" d="M 0.808594 0.640625 L 206.527344 0.640625 L 206.527344 206.359375 L 0.808594 206.359375 Z M 0.808594 0.640625 " fill-opacity="1" fill-rule="nonzero"/></g></g></g></g></g></g><g clip-path="url(#388b850834)"><g clip-path="url(#17468a6842)"><g transform="matrix(1, 0, 0, 1, 102, 202)"><g clip-path="url(#07ad2298ef)"><g clip-path="url(#c7a163b07d)"><g clip-path="url(#08ead9d217)"><path fill="#1052d4" d="M 0.113281 0.160156 L 34.191406 0.160156 L 34.191406 52.476562 L 0.113281 52.476562 Z M 0.113281 0.160156 " fill-opacity="1" fill-rule="nonzero"/></g></g></g></g></g></g><g clip-path="url(#ee7c8578bc)"><g clip-path="url(#f20d28c5cd)"><g transform="matrix(1, 0, 0, 1, 161, 192)"><g clip-path="url(#5acb7c18cb)"><g clip-path="url(#df4010b64b)"><g clip-path="url(#b2b4dc5e3d)"><path fill="#1052d4" d="M 0.628906 0.785156 L 34.707031 0.785156 L 34.707031 62.554688 L 0.628906 62.554688 Z M 0.628906 0.785156 " fill-opacity="1" fill-rule="nonzero"/></g></g></g></g></g></g><g clip-path="url(#6b99e468e4)"><g clip-path="url(#2f60b1b86b)"><g transform="matrix(1, 0, 0, 1, 221, 120)"><g clip-path="url(#6c4d67add9)"><g clip-path="url(#099831fcdc)"><g clip-path="url(#35d9a2c3fa)"><path fill="#1052d4" d="M 0.195312 0.265625 L 34.273438 0.265625 L 34.273438 134.457031 L 0.195312 134.457031 Z M 0.195312 0.265625 " fill-opacity="1" fill-rule="nonzero"/></g></g></g></g></g></g><g fill="#ffffff" fill-opacity="1"><g transform="translate(418.420734, 255.826493)"><g><path d="M 65.09375 1.765625 C 52.976562 1.765625 42.453125 -0.0234375 33.515625 -3.609375 C 24.585938 -7.203125 17.695312 -12.675781 12.84375 -20.03125 C 7.988281 -27.382812 5.53125 -36.71875 5.46875 -48.03125 L 41.265625 -48.03125 C 41.503906 -43.945312 42.582031 -40.46875 44.5 -37.59375 C 46.414062 -34.71875 49.085938 -32.550781 52.515625 -31.09375 C 55.953125 -29.644531 60.050781 -28.921875 64.8125 -28.921875 C 68.832031 -28.921875 72.234375 -29.414062 75.015625 -30.40625 C 77.796875 -31.394531 79.925781 -32.769531 81.40625 -34.53125 C 82.894531 -36.300781 83.640625 -38.359375 83.640625 -40.703125 C 83.640625 -42.804688 82.941406 -44.660156 81.546875 -46.265625 C 80.160156 -47.867188 77.90625 -49.320312 74.78125 -50.625 C 71.65625 -51.925781 67.53125 -53.070312 62.40625 -54.0625 L 48.578125 -56.9375 C 36.097656 -59.53125 26.347656 -64.023438 19.328125 -70.421875 C 12.316406 -76.816406 8.8125 -85.363281 8.8125 -96.0625 C 8.8125 -104.832031 11.191406 -112.523438 15.953125 -119.140625 C 20.710938 -125.753906 27.296875 -130.898438 35.703125 -134.578125 C 44.109375 -138.253906 53.8125 -140.09375 64.8125 -140.09375 C 76.0625 -140.09375 85.765625 -138.238281 93.921875 -134.53125 C 102.085938 -130.820312 108.394531 -125.566406 112.84375 -118.765625 C 117.289062 -111.972656 119.578125 -104.003906 119.703125 -94.859375 L 83.8125 -94.859375 C 83.507812 -99.429688 81.78125 -103 78.625 -105.5625 C 75.46875 -108.125 70.894531 -109.40625 64.90625 -109.40625 C 61.132812 -109.40625 57.976562 -108.941406 55.4375 -108.015625 C 52.90625 -107.085938 51.003906 -105.804688 49.734375 -104.171875 C 48.472656 -102.535156 47.84375 -100.664062 47.84375 -98.5625 C 47.84375 -96.332031 48.488281 -94.414062 49.78125 -92.8125 C 51.082031 -91.207031 53.15625 -89.816406 56 -88.640625 C 58.84375 -87.460938 62.457031 -86.410156 66.84375 -85.484375 L 78.15625 -83.171875 C 85.820312 -81.566406 92.421875 -79.476562 97.953125 -76.90625 C 103.484375 -74.34375 108.007812 -71.316406 111.53125 -67.828125 C 115.0625 -64.335938 117.644531 -60.378906 119.28125 -55.953125 C 120.914062 -51.535156 121.734375 -46.671875 121.734375 -41.359375 C 121.734375 -32.140625 119.476562 -24.316406 114.96875 -17.890625 C 110.457031 -11.460938 103.984375 -6.578125 95.546875 -3.234375 C 87.109375 0.0976562 76.957031 1.765625 65.09375 1.765625 Z M 65.09375 1.765625 "/></g></g></g><g fill="#ffffff" fill-opacity="1"><g transform="translate(545.717475, 255.826493)"><g><path d="M 68.0625 1.765625 C 56.1875 1.765625 45.78125 -0.316406 36.84375 -4.484375 C 27.914062 -8.660156 20.960938 -14.597656 15.984375 -22.296875 C 11.015625 -29.992188 8.53125 -39.097656 8.53125 -49.609375 L 8.53125 -138.15625 L 45.984375 -138.15625 L 45.984375 -52.75 C 45.984375 -48.425781 46.941406 -44.609375 48.859375 -41.296875 C 50.773438 -37.992188 53.382812 -35.398438 56.6875 -33.515625 C 60 -31.628906 63.820312 -30.6875 68.15625 -30.6875 C 72.414062 -30.6875 76.210938 -31.628906 79.546875 -33.515625 C 82.890625 -35.398438 85.519531 -37.992188 87.4375 -41.296875 C 89.351562 -44.609375 90.3125 -48.425781 90.3125 -52.75 L 90.3125 -138.15625 L 127.765625 -138.15625 L 127.765625 -49.609375 C 127.765625 -39.097656 125.273438 -29.992188 120.296875 -22.296875 C 115.328125 -14.597656 108.359375 -8.660156 99.390625 -4.484375 C 90.429688 -0.316406 79.988281 1.765625 68.0625 1.765625 Z M 68.0625 1.765625 "/></g></g></g><g fill="#ffffff" fill-opacity="1"><g transform="translate(682.007489, 255.826493)"><g><path d="M 8.53125 0 L 8.53125 -138.15625 L 67.875 -138.15625 C 78.320312 -138.15625 87.4375 -136.144531 95.21875 -132.125 C 103.007812 -128.101562 109.050781 -122.429688 113.34375 -115.109375 C 117.644531 -107.785156 119.796875 -99.207031 119.796875 -89.375 C 119.796875 -79.488281 117.597656 -70.941406 113.203125 -63.734375 C 108.816406 -56.535156 102.648438 -50.972656 94.703125 -47.046875 C 86.765625 -43.128906 77.507812 -41.171875 66.9375 -41.171875 L 31.0625 -41.171875 L 31.0625 -70.84375 L 60.359375 -70.84375 C 64.679688 -70.84375 68.375 -71.597656 71.4375 -73.109375 C 74.5 -74.617188 76.863281 -76.765625 78.53125 -79.546875 C 80.195312 -82.328125 81.03125 -85.601562 81.03125 -89.375 C 81.03125 -93.269531 80.195312 -96.578125 78.53125 -99.296875 C 76.863281 -102.023438 74.5 -104.113281 71.4375 -105.5625 C 68.375 -107.007812 64.679688 -107.734375 60.359375 -107.734375 L 46.265625 -107.734375 L 46.265625 0 Z M 8.53125 0 "/></g></g></g><g fill="#ffffff" fill-opacity="1"><g transform="translate(806.244679, 255.826493)"><g><path d="M 8.53125 0 L 8.53125 -138.15625 L 109.78125 -138.15625 L 109.78125 -107.375 L 46.265625 -107.375 L 46.265625 -84.5625 L 104.59375 -84.5625 L 104.59375 -54.703125 L 46.265625 -54.703125 L 46.265625 -30.78125 L 109.5 -30.78125 L 109.5 0 Z M 8.53125 0 "/></g></g></g><g fill="#ffffff" fill-opacity="1"><g transform="translate(923.435559, 255.826493)"><g><path d="M 8.53125 0 L 8.53125 -138.15625 L 67.875 -138.15625 C 78.320312 -138.15625 87.4375 -136.269531 95.21875 -132.5 C 103.007812 -128.726562 109.050781 -123.300781 113.34375 -116.21875 C 117.644531 -109.144531 119.796875 -100.722656 119.796875 -90.953125 C 119.796875 -81.128906 117.582031 -72.800781 113.15625 -65.96875 C 108.738281 -59.132812 102.523438 -53.941406 94.515625 -50.390625 C 86.515625 -46.835938 77.171875 -45.0625 66.484375 -45.0625 L 31.4375 -45.0625 L 31.4375 -74.359375 L 60.359375 -74.359375 C 64.679688 -74.359375 68.375 -74.945312 71.4375 -76.125 C 74.5 -77.300781 76.863281 -79.109375 78.53125 -81.546875 C 80.195312 -83.984375 81.03125 -87.117188 81.03125 -90.953125 C 81.03125 -94.785156 80.195312 -97.9375 78.53125 -100.40625 C 76.863281 -102.882812 74.5 -104.738281 71.4375 -105.96875 C 68.375 -107.207031 64.679688 -107.828125 60.359375 -107.828125 L 46.265625 -107.828125 L 46.265625 0 Z M 83.71875 0 L 50.8125 -63.234375 L 90.5 -63.234375 L 124.34375 0 Z M 83.71875 0 "/></g></g></g><g fill="#ffffff" fill-opacity="1"><g transform="translate(1045.910999, 255.826493)"><g><path d="M 49.703125 0 L 3.34375 -138.15625 L 45.796875 -138.15625 L 61.84375 -84.5625 C 65.300781 -72.9375 68.515625 -61.160156 71.484375 -49.234375 C 74.453125 -37.304688 77.328125 -25.222656 80.109375 -12.984375 L 71.109375 -12.984375 C 73.835938 -25.222656 76.59375 -37.304688 79.375 -49.234375 C 82.15625 -61.160156 85.210938 -72.9375 88.546875 -84.5625 L 103.84375 -138.15625 L 145.75 -138.15625 L 100.875 0 Z M 49.703125 0 "/></g></g></g><g fill="#ffffff" fill-opacity="1"><g transform="translate(1194.995599, 255.826493)"><g><path d="M 46.265625 -138.15625 L 46.265625 0 L 8.53125 0 L 8.53125 -138.15625 Z M 46.265625 -138.15625 "/></g></g></g><g fill="#ffffff" fill-opacity="1"><g transform="translate(1249.882467, 255.826493)"><g><path d="M 65.09375 1.765625 C 52.976562 1.765625 42.453125 -0.0234375 33.515625 -3.609375 C 24.585938 -7.203125 17.695312 -12.675781 12.84375 -20.03125 C 7.988281 -27.382812 5.53125 -36.71875 5.46875 -48.03125 L 41.265625 -48.03125 C 41.503906 -43.945312 42.582031 -40.46875 44.5 -37.59375 C 46.414062 -34.71875 49.085938 -32.550781 52.515625 -31.09375 C 55.953125 -29.644531 60.050781 -28.921875 64.8125 -28.921875 C 68.832031 -28.921875 72.234375 -29.414062 75.015625 -30.40625 C 77.796875 -31.394531 79.925781 -32.769531 81.40625 -34.53125 C 82.894531 -36.300781 83.640625 -38.359375 83.640625 -40.703125 C 83.640625 -42.804688 82.941406 -44.660156 81.546875 -46.265625 C 80.160156 -47.867188 77.90625 -49.320312 74.78125 -50.625 C 71.65625 -51.925781 67.53125 -53.070312 62.40625 -54.0625 L 48.578125 -56.9375 C 36.097656 -59.53125 26.347656 -64.023438 19.328125 -70.421875 C 12.316406 -76.816406 8.8125 -85.363281 8.8125 -96.0625 C 8.8125 -104.832031 11.191406 -112.523438 15.953125 -119.140625 C 20.710938 -125.753906 27.296875 -130.898438 35.703125 -134.578125 C 44.109375 -138.253906 53.8125 -140.09375 64.8125 -140.09375 C 76.0625 -140.09375 85.765625 -138.238281 93.921875 -134.53125 C 102.085938 -130.820312 108.394531 -125.566406 112.84375 -118.765625 C 117.289062 -111.972656 119.578125 -104.003906 119.703125 -94.859375 L 83.8125 -94.859375 C 83.507812 -99.429688 81.78125 -103 78.625 -105.5625 C 75.46875 -108.125 70.894531 -109.40625 64.90625 -109.40625 C 61.132812 -109.40625 57.976562 -108.941406 55.4375 -108.015625 C 52.90625 -107.085938 51.003906 -105.804688 49.734375 -104.171875 C 48.472656 -102.535156 47.84375 -100.664062 47.84375 -98.5625 C 47.84375 -96.332031 48.488281 -94.414062 49.78125 -92.8125 C 51.082031 -91.207031 53.15625 -89.816406 56 -88.640625 C 58.84375 -87.460938 62.457031 -86.410156 66.84375 -85.484375 L 78.15625 -83.171875 C 85.820312 -81.566406 92.421875 -79.476562 97.953125 -76.90625 C 103.484375 -74.34375 108.007812 -71.316406 111.53125 -67.828125 C 115.0625 -64.335938 117.644531 -60.378906 119.28125 -55.953125 C 120.914062 -51.535156 121.734375 -46.671875 121.734375 -41.359375 C 121.734375 -32.140625 119.476562 -24.316406 114.96875 -17.890625 C 110.457031 -11.460938 103.984375 -6.578125 95.546875 -3.234375 C 87.109375 0.0976562 76.957031 1.765625 65.09375 1.765625 Z M 65.09375 1.765625 "/></g></g></g><g fill="#ffffff" fill-opacity="1"><g transform="translate(1377.179209, 255.826493)"><g><path d="M 72.96875 1.953125 C 60.425781 1.953125 49.066406 -0.78125 38.890625 -6.25 C 28.722656 -11.726562 20.671875 -19.734375 14.734375 -30.265625 C 8.804688 -40.804688 5.84375 -53.710938 5.84375 -68.984375 C 5.84375 -84.378906 8.804688 -97.359375 14.734375 -107.921875 C 20.671875 -118.492188 28.722656 -126.5 38.890625 -131.9375 C 49.066406 -137.375 60.425781 -140.09375 72.96875 -140.09375 C 85.519531 -140.09375 96.863281 -137.375 107 -131.9375 C 117.132812 -126.5 125.179688 -118.492188 131.140625 -107.921875 C 137.109375 -97.359375 140.09375 -84.378906 140.09375 -68.984375 C 140.09375 -53.648438 137.109375 -40.710938 131.140625 -30.171875 C 125.179688 -19.640625 117.132812 -11.648438 107 -6.203125 C 96.863281 -0.765625 85.519531 1.953125 72.96875 1.953125 Z M 72.96875 -30.875 C 79.207031 -30.875 84.429688 -32.34375 88.640625 -35.28125 C 92.847656 -38.21875 96.03125 -42.53125 98.1875 -48.21875 C 100.351562 -53.90625 101.4375 -60.828125 101.4375 -68.984375 C 101.4375 -77.203125 100.351562 -84.171875 98.1875 -89.890625 C 96.03125 -95.609375 92.847656 -99.9375 88.640625 -102.875 C 84.429688 -105.8125 79.207031 -107.28125 72.96875 -107.28125 C 66.851562 -107.28125 61.675781 -105.8125 57.4375 -102.875 C 53.207031 -99.9375 49.992188 -95.609375 47.796875 -89.890625 C 45.597656 -84.171875 44.5 -77.203125 44.5 -68.984375 C 44.5 -60.828125 45.597656 -53.90625 47.796875 -48.21875 C 49.992188 -42.53125 53.207031 -38.21875 57.4375 -35.28125 C 61.675781 -32.34375 66.851562 -30.875 72.96875 -30.875 Z M 72.96875 -30.875 "/></g></g></g><g fill="#ffffff" fill-opacity="1"><g transform="translate(1523.204252, 255.826493)"><g><path d="M 8.53125 0 L 8.53125 -138.15625 L 67.875 -138.15625 C 78.320312 -138.15625 87.4375 -136.269531 95.21875 -132.5 C 103.007812 -128.726562 109.050781 -123.300781 113.34375 -116.21875 C 117.644531 -109.144531 119.796875 -100.722656 119.796875 -90.953125 C 119.796875 -81.128906 117.582031 -72.800781 113.15625 -65.96875 C 108.738281 -59.132812 102.523438 -53.941406 94.515625 -50.390625 C 86.515625 -46.835938 77.171875 -45.0625 66.484375 -45.0625 L 31.4375 -45.0625 L 31.4375 -74.359375 L 60.359375 -74.359375 C 64.679688 -74.359375 68.375 -74.945312 71.4375 -76.125 C 74.5 -77.300781 76.863281 -79.109375 78.53125 -81.546875 C 80.195312 -83.984375 81.03125 -87.117188 81.03125 -90.953125 C 81.03125 -94.785156 80.195312 -97.9375 78.53125 -100.40625 C 76.863281 -102.882812 74.5 -104.738281 71.4375 -105.96875 C 68.375 -107.207031 64.679688 -107.828125 60.359375 -107.828125 L 46.265625 -107.828125 L 46.265625 0 Z M 83.71875 0 L 50.8125 -63.234375 L 90.5 -63.234375 L 124.34375 0 Z M 83.71875 0 "/></g></g></g><g clip-path="url(#6408fdb9f7)"><g clip-path="url(#454407626e)"><g transform="matrix(1, 0, 0, 1, 161, 153)"><g clip-path="url(#6713439156)"><g clip-path="url(#2e74b1bbcf)"><g clip-path="url(#4519f90eb1)"><path fill="#1052d4" d="M 0.628906 0.980469 L 34.671875 0.980469 L 34.671875 34.5 L 0.628906 34.5 Z M 0.628906 0.980469 " fill-opacity="1" fill-rule="nonzero"/></g></g></g></g></g></g></svg>